<svg width="196px" height="400px" viewBox="0 0 196 400" version="1.1" xmlns="http://www.w3.org/2000/svg" xmlns:xlink="http://www.w3.org/1999/xlink">
  <defs>
    <linearGradient x1="0.587066474%" y1="67.1708066%" x2="100%" y2="67.1708066%" id="linearGradient-1">
      <stop stop-color="#DECBB2" offset="0%"></stop>
      <stop stop-color="#E4BF8D" offset="52.9488801%"></stop>
      <stop stop-color="#B1997A" offset="100%"></stop>
    </linearGradient>
    <radialGradient cx="38.0485372%" cy="36.7092803%" fx="38.0485372%" fy="36.7092803%" r="85.2423726%" gradientTransform="translate(0.380485,0.367093),scale(1.000000,0.915584),rotate(-125.913468),scale(1.000000,0.914252),translate(-0.380485,-0.367093)" id="radialGradient-2">
      <stop stop-color="#F3EBBB" offset="0%"></stop>
      <stop stop-color="#ECC015" offset="99.9254877%"></stop>
      <stop stop-color="#DCD637" offset="100%"></stop>
    </radialGradient>
  </defs>
  <g id="Symbols" stroke="none" stroke-width="1" fill="none" fill-rule="evenodd">
    <g id="Sadflower" transform="translate(-99.000000, 0.000000)">
      <g id="branchdesert" transform="translate(192.000000, 49.000000)" fill="url(#linearGradient-1)">
        <rect id="Rectangle" x="0" y="0" width="18" height="351"></rect>
      </g>
      <g id="Group-2" transform="translate(61.000000, 0.000000)">
        <path d="M110.157895,40.0672846 C100.824561,20.7339513 104.157895,11.0672846 120.157895,11.0672846 C144.157895,11.0672846 131.157895,13.0672846 140.157895,3.06728461 C149.157895,-6.93271539 173.157895,8.06728461 158.157895,40.0672846 C148.157895,61.4006179 132.157895,61.4006179 110.157895,40.0672846 Z" id="Path-8" fill="#B89E7A"></path>
        <path d="M215.842105,33.8716872 C200.409697,22.4813302 187.959458,16.8583379 178.491388,17.0027105 C174.108475,17.0695428 169.558714,17.692535 164.842105,18.8716872 C144.842105,23.8716872 150.175439,33.2050206 180.842105,46.8716872 L215.842105,33.8716872 Z" id="Path-10" fill="#B89E7A" transform="translate(184.421053, 31.935844) scale(-1, 1) translate(-184.421053, -31.935844) "></path>
        <path d="M120.842105,35.8716872 C105.409697,24.4813302 92.9594575,18.8583379 83.4913879,19.0027105 C79.108475,19.0695428 74.5587141,19.692535 69.8421053,20.8716872 C49.8421053,25.8716872 55.1754386,35.2050206 85.8421053,48.8716872 L120.842105,35.8716872 Z" id="Path-10" fill="#FFC4C4"></path>
        <path d="M96.6985243,86.9750957 C71.9281539,84.1723746 52.6985243,95.3832589 39.0096354,120.607749 C25.3207465,145.832239 17.4985243,161.947885 15.5429688,168.954688 C43.5725984,157.043123 60.5207465,147.233599 66.3874132,139.526116 C72.2540799,131.818633 84.639265,123.76081 103.542969,115.352647 L96.6985243,86.9750957 Z" id="Path-6" fill="#B89E7A" transform="translate(59.542969, 127.754688) rotate(-30.000000) translate(-59.542969, -127.754688) "></path>
        <g id="bloom" transform="translate(68.000000, 15.000000)" fill="url(#radialGradient-2)">
          <ellipse id="Oval" cx="70.5" cy="77" rx="70.5" ry="77"></ellipse>
        </g>
        <path d="M118.025641,98 C101.358974,120.666667 97.6923077,142 107.025641,162 C110.358974,168 113.025641,174 115.025641,180 C121.692308,166 128.692308,155.666667 136.025641,149 C143.358974,142.333333 142.358974,125.333333 133.025641,98 L118.025641,98 Z" id="Path-4" fill="#FFC4C4"></path>
        <path d="M66.4179687,152.886719 C37.7513021,168.886719 30.4179688,176.886719 44.4179688,176.886719 C57.6459927,176.886719 62.3284322,169.774231 77.4179688,167.886719 C86.2836555,166.777732 97.582417,165.374555 119.417969,173.886719 C158.751302,189.220052 166.751302,182.220052 143.417969,152.886719 L106.417969,146.886719 L66.4179687,152.886719 Z" id="Path-12" fill="#B89E7A" transform="translate(96.988614, 164.334480) rotate(-83.000000) translate(-96.988614, -164.334480) "></path>
        <path d="M76,79 C66,81 58.6666667,90.3333333 54,107 C49.3333333,123.666667 47,134.666667 47,140 C53.6666667,132 62.6666667,128.666667 74,130 C85.3333333,131.333333 94.6666667,118.666667 102,92 L76,79 Z" id="Path-5" fill="#FFC4C4"></path>
        <path d="" id="Path-2" stroke="#2A2A2A" stroke-width="1.5"></path>
        <path d="M249.542274,87.2133769 C224.771904,84.4106558 205.542274,95.6215402 191.853385,120.84603 C178.164497,146.07052 170.342274,162.186166 168.386719,169.192969 C196.416348,157.281404 213.364497,147.47188 219.231163,139.764397 C225.09783,132.056914 237.483015,123.999091 256.386719,115.590928 L249.542274,87.2133769 Z" id="Path-6" fill="#B89E7A" transform="translate(212.386719, 127.992969) scale(-1, 1) rotate(-33.000000) translate(-212.386719, -127.992969) "></path>
        <path d="M269.165334,173.804687 C249.165334,154.471354 226.498667,145.804687 201.165334,147.804687 C163.165334,150.804688 173.165334,139.804688 156.165334,139.804688 C139.165334,139.804688 122.165334,160.804687 117.165334,164.804687 C112.165334,168.804687 110.165334,178.804687 144.165334,167.804687 C178.165334,156.804688 212.165334,157.804687 224.165334,167.804687 C232.165334,174.471354 244.165334,179.804688 260.165334,183.804688 L269.165334,173.804687 Z" id="Path-7" fill="#B89E7A" transform="translate(191.764308, 161.804688) scale(-1, 1) rotate(-78.000000) translate(-191.764308, -161.804688) "></path>
        <path d="M190,92 C180,94 172.666667,103.333333 168,120 C163.333333,136.666667 161,147.666667 161,153 C167.666667,145 176.666667,141.666667 188,143 C199.333333,144.333333 208.666667,131.666667 216,105 L190,92 Z" id="Path-5" fill="#B89E7A" transform="translate(188.500000, 122.500000) scale(-1, 1) translate(-188.500000, -122.500000) "></path>
        <path d="M92.039207,124.190476 C75.7401983,98.3815824 74.7215102,83.7332913 88.9831428,80.245603 C103.244775,76.7579146 107.65909,80.5943718 102.226087,91.7549745 C109.696466,79.8968341 118.864659,79.1992965 129.730665,89.6623615 C140.59667,100.125427 128.032851,111.634798 92.039207,124.190476 Z" id="Path-3" fill="#B89E7A"></path>
        <path d="M171.039207,116.190476 C154.740198,90.3815824 153.72151,75.7332913 167.983143,72.245603 C182.244775,68.7579146 186.65909,72.5943718 181.226087,83.7549745 C188.696466,71.8968341 197.864659,71.1992965 208.730665,81.6623615 C219.59667,92.1254266 207.032851,103.634798 171.039207,116.190476 Z" id="Path-3" fill="#FFC4C4" transform="translate(185.255072, 93.595238) scale(-1, 1) translate(-185.255072, -93.595238) "></path>
        <path d="M170.893053,88.327924 C159.893053,80.327924 135.893053,80.327924 130.893053,95.327924 C125.893053,110.327924 142.893053,120.327924 156.893053,129.327924 C166.226386,135.327924 173.893053,144.661257 179.893053,157.327924 C184.514201,137.867834 186.180867,123.201168 184.893053,113.327924 C181.893053,99.327924 181.893053,96.327924 170.893053,88.327924 Z" id="Path-13" fill="#B89E7A"></path>
      </g>
      <g id="eye" transform="translate(149.000000, 45.000000)">
        <path d="M16.5,19 C22.5751322,19 28.0751322,15.8333333 33,9.5 C29.0640857,5.31379666 26.0154905,2.70634976 23.8542142,1.6776593 C21.5043754,0.559219767 19.0529706,0 16.5,0 C10.4248678,0 4.92486775,3.16666667 0,9.5 C4.92486775,15.8333333 10.4248678,19 16.5,19 Z" id="Oval" fill="#FFFFFF" transform="translate(16.500000, 9.500000) rotate(-180.000000) translate(-16.500000, -9.500000) "></path>
        <circle id="Oval" stroke="#2A2A2A" stroke-width="1" fill="#42B4D8" cx="16.5" cy="10.5" r="8.5"></circle>
        <circle id="Oval" fill="#2A2A2A" cx="16.5" cy="10.5" r="5.5"></circle>
        <path d="M31.6799046,18.8389511 C28.2441772,15.2804059 25.554947,13.0408943 23.6393306,12.1291292 C21.35629,11.0424832 18.9782519,10.5 16.5,10.5 C11.5285476,10.5 6.94733139,12.6851628 2.73675472,17.0828856 C2.35422769,17.4824147 1.83528732,18.073565 1.18155733,18.8547761 C6.14594567,18.2848999 11.2521149,18 16.5,18 C21.6990816,18 26.7590709,18.2796256 31.6799046,18.8389511 Z" id="Oval" stroke="#E6CE04" stroke-width="1" fill="#E6CE04" transform="translate(16.500000, 14.750000) rotate(-180.000000) translate(-16.500000, -14.750000) "></path>
      </g>
      <g id="eye" transform="translate(223.000000, 45.000000)">
        <path d="M16.5,19 C22.5751322,19 28.0751322,15.8333333 33,9.5 C29.0640857,5.31379666 26.0154905,2.70634976 23.8542142,1.6776593 C21.5043754,0.559219767 19.0529706,0 16.5,0 C10.4248678,0 4.92486775,3.16666667 0,9.5 C4.92486775,15.8333333 10.4248678,19 16.5,19 Z" id="Oval" fill="#FFFFFF" transform="translate(16.500000, 9.500000) rotate(-180.000000) translate(-16.500000, -9.500000) "></path>
        <circle id="Oval" stroke="#2A2A2A" stroke-width="1" fill="#42B4D8" cx="16.5" cy="10.5" r="8.5"></circle>
        <circle id="Oval" fill="#2A2A2A" cx="16.5" cy="10.5" r="5.5"></circle>
        <path d="M31.6799046,18.8389511 C28.2441772,15.2804059 25.554947,13.0408943 23.6393306,12.1291292 C21.35629,11.0424832 18.9782519,10.5 16.5,10.5 C11.5285476,10.5 6.94733139,12.6851628 2.73675472,17.0828856 C2.35422769,17.4824147 1.83528732,18.073565 1.18155733,18.8547761 C6.14594567,18.2848999 11.2521149,18 16.5,18 C21.6990816,18 26.7590709,18.2796256 31.6799046,18.8389511 Z" id="Oval" stroke="#E6CE04" stroke-width="1" fill="#E6CE04" transform="translate(16.500000, 14.750000) rotate(-180.000000) translate(-16.500000, -14.750000) "></path>
      </g>
      <path d="M213,65 C213,56.163444 208.29899,49 202.5,49 C196.70101,49 192,56.163444 192,65" id="Oval" stroke="#2A2A2A" stroke-width="2"></path>
    </g>
  </g>
</svg>
