<svg width="301px" height="398px" viewBox="0 0 301 398" version="1.1" xmlns="http://www.w3.org/2000/svg" xmlns:xlink="http://www.w3.org/1999/xlink">
  <defs>
    <linearGradient x1="0%" y1="67.1708066%" x2="100%" y2="67.1708066%" id="linearGradient-1">
      <stop stop-color="#7EA4B2" offset="0%"></stop>
      <stop stop-color="#C1DDE7" offset="52.9488801%"></stop>
      <stop stop-color="#7EA4B2" offset="100%"></stop>
    </linearGradient>
    <radialGradient cx="26.2965426%" cy="22.3816288%" fx="26.2965426%" fy="22.3816288%" r="84.9955115%" gradientTransform="translate(0.262965,0.223816),scale(1.000000,0.915584),rotate(90.000000),scale(1.000000,0.735275),translate(-0.262965,-0.223816)" id="radialGradient-2">
      <stop stop-color="#D9F1FA" offset="0%"></stop>
      <stop stop-color="#427588" offset="100%"></stop>
    </radialGradient>
  </defs>
  <g id="Symbols" stroke="none" stroke-width="1" fill="none" fill-rule="evenodd">
    <g id="FrozenFlower" transform="translate(-50.000000, 0.000000)">
      <g id="branchblue" transform="translate(188.000000, 47.000000)" fill="url(#linearGradient-1)">
        <rect id="Rectangle" x="0" y="0" width="18" height="351"></rect>
      </g>
      <g id="Group-2" transform="translate(61.000000, 0.000000)">
        <path d="M50.0488435,67.1216328 C36.7891155,68.5270382 32.9507732,71.337849 38.5338166,75.5540652 C46.9083816,81.8783896 20.7378659,62.9054166 16.5505834,81.8783896 C13.7590617,94.5270382 23.8783278,99.0946058 46.9083816,95.5810923 L97.1557716,106.121633 L105.530337,92.4189301 L83.5471035,67.1216328 L50.0488435,67.1216328 Z" id="Path-11" fill="#FFC4C4" transform="translate(60.814120, 86.621633) rotate(-35.000000) translate(-60.814120, -86.621633) "></path>
        <path d="M99.0259237,73.8991377 C72.3592571,43.232471 49.0259237,30.232471 29.0259237,34.8991377 C-0.974076266,41.8991377 0.025923734,43.9746094 9.02592373,53.9368735 C18.0259237,63.8991377 36.4863281,68.8991377 51.2561259,73.8991377 C61.1026578,77.232471 70.0259237,84.8991377 78.0259237,96.8991377 L99.0259237,73.8991377 Z" id="Path-9" stroke="#2A2A2A" stroke-width="0.7" fill="#E7E7E7" transform="translate(51.256126, 65.436874) rotate(-60.000000) translate(-51.256126, -65.436874) "></path>
        <path d="M110.157895,40.0672846 C100.824561,20.7339513 104.157895,11.0672846 120.157895,11.0672846 C144.157895,11.0672846 131.157895,13.0672846 140.157895,3.06728461 C149.157895,-6.93271539 173.157895,8.06728461 158.157895,40.0672846 C148.157895,61.4006179 132.157895,61.4006179 110.157895,40.0672846 Z" id="Path-8" fill="#C1C1C1"></path>
        <path d="M276.760299,77.2917158 C250.093632,46.6250491 226.760299,33.6250491 206.760299,38.2917158 C176.760299,45.2917158 177.760299,47.3671875 186.760299,57.3294517 C195.760299,67.2917158 214.220703,72.2917158 228.990501,77.2917158 C238.837033,80.6250491 247.760299,88.2917158 255.760299,100.291716 L276.760299,77.2917158 Z" id="Path-9" stroke="#2A2A2A" stroke-width="0.7" fill="#FFFFFF" transform="translate(228.990501, 68.829452) scale(-1, 1) rotate(-57.000000) translate(-228.990501, -68.829452) "></path>
        <path d="M215.842105,33.8716872 C200.409697,22.4813302 187.959458,16.8583379 178.491388,17.0027105 C174.108475,17.0695428 169.558714,17.692535 164.842105,18.8716872 C144.842105,23.8716872 150.175439,33.2050206 180.842105,46.8716872 L215.842105,33.8716872 Z" id="Path-10" stroke="#2A2A2A" stroke-width="0.7" fill="#E7E7E7" transform="translate(184.421053, 31.935844) scale(-1, 1) translate(-184.421053, -31.935844) "></path>
        <path d="M120.842105,35.8716872 C105.409697,24.4813302 92.9594575,18.8583379 83.4913879,19.0027105 C79.108475,19.0695428 74.5587141,19.692535 69.8421053,20.8716872 C49.8421053,25.8716872 55.1754386,35.2050206 85.8421053,48.8716872 L120.842105,35.8716872 Z" id="Path-10" fill="#FFC4C4"></path>
        <path d="M143.997365,157.779297 C123.997365,138.445964 101.330698,129.779297 75.9973651,131.779297 C37.9973651,134.779297 47.9973651,123.779297 30.9973651,123.779297 C13.9973651,123.779297 -3.00263491,144.779297 -8.00263491,148.779297 C-13.0026349,152.779297 -15.0026349,162.779297 18.9973651,151.779297 C52.9973651,140.779297 86.9973651,141.779297 98.9973651,151.779297 C106.997365,158.445964 118.997365,163.779297 134.997365,167.779297 L143.997365,157.779297 Z" id="Path-7" stroke="#2A2A2A" stroke-width="0.7" fill="#FFFFFF" transform="translate(66.596339, 145.779297) rotate(-96.000000) translate(-66.596339, -145.779297) "></path>
        <g id="bloomblue" transform="translate(68.000000, 15.000000)" fill="url(#radialGradient-2)">
          <ellipse id="Oval" cx="70.5" cy="77" rx="70.5" ry="77"></ellipse>
        </g>
        <path d="M300.559865,157.119141 C280.559865,137.785807 257.893198,129.119141 232.559865,131.119141 C194.559865,134.119141 204.559865,123.119141 187.559865,123.119141 C170.559865,123.119141 153.559865,144.119141 148.559865,148.119141 C143.559865,152.119141 141.559865,162.119141 175.559865,151.119141 C209.559865,140.119141 243.559865,141.119141 255.559865,151.119141 C263.559865,157.785807 275.559865,163.119141 291.559865,167.119141 L300.559865,157.119141 Z" id="Path-7" stroke="#2A2A2A" stroke-width="0.7" fill="#FFFFFF" transform="translate(223.158839, 145.119141) scale(-1, 1) rotate(-90.000000) translate(-223.158839, -145.119141) "></path>
        <path d="M121.025641,94 C104.358974,116.666667 100.692308,138 110.025641,158 C113.358974,164 116.025641,170 118.025641,176 C124.692308,162 131.692308,151.666667 139.025641,145 C146.358974,138.333333 145.358974,121.333333 136.025641,94 L121.025641,94 Z" id="Path-4" fill="#FFC4C4"></path>
        <path d="M120.462891,170.623047 C91.796224,186.623047 84.4628906,194.623047 98.4628906,194.623047 C111.690915,194.623047 116.373354,187.510559 131.462891,185.623047 C140.328577,184.51406 151.627339,183.110883 173.462891,191.623047 C212.796224,206.95638 220.796224,199.95638 197.462891,170.623047 L160.462891,164.623047 L120.462891,170.623047 Z" id="Path-12" fill="#FFC4C4" transform="translate(151.033536, 182.070808) scale(-1, 1) rotate(-100.000000) translate(-151.033536, -182.070808) "></path>
        <path d="M68.8222656,158.486328 C40.155599,174.486328 32.8222656,182.486328 46.8222656,182.486328 C60.0502896,182.486328 64.7327291,175.37384 79.8222656,173.486328 C88.6879523,172.377342 99.9867139,170.974164 121.822266,179.486328 C161.155599,194.819661 169.155599,187.819661 145.822266,158.486328 L108.822266,152.486328 L68.8222656,158.486328 Z" id="Path-12" fill="#C1C1C1" transform="translate(99.392911, 169.934089) rotate(-109.000000) translate(-99.392911, -169.934089) "></path>
        <path d="M72.9511719,78.9443359 C62.9511719,80.9443359 55.6178385,90.2776693 50.9511719,106.944336 C46.2845052,123.611003 43.9511719,134.611003 43.9511719,139.944336 C50.6178385,131.944336 59.6178385,128.611003 70.9511719,129.944336 C82.2845052,131.277669 91.6178385,118.611003 98.9511719,91.9443359 L72.9511719,78.9443359 Z" id="Path-5" fill="#C1C1C1" transform="translate(71.451172, 109.444336) rotate(28.000000) translate(-71.451172, -109.444336) "></path>
        <path d="" id="Path-2" stroke="#2A2A2A" stroke-width="1.5"></path>
        <path d="M121.033249,93.064094 C145.80362,90.261373 165.033249,101.472257 178.722138,126.696747 C192.411027,151.921237 200.233249,168.036883 202.188805,175.043686 C174.159175,163.132121 157.211027,153.322597 151.344361,145.615114 C145.477694,137.907631 133.092509,129.849808 114.188805,121.441645 L121.033249,93.064094 Z" id="Path-6" fill="#C1C1C1" transform="translate(158.188805, 133.843686) rotate(40.000000) translate(-158.188805, -133.843686) "></path>
        <path d="M185.546984,85 C175.546984,87 168.21365,96.3333333 163.546984,113 C158.880317,129.666667 156.546984,140.666667 156.546984,146 C163.21365,138 172.21365,134.666667 183.546984,136 C194.880317,137.333333 204.21365,124.666667 211.546984,98 L185.546984,85 Z" id="Path-5" fill="#C1C1C1" transform="translate(184.046984, 115.500000) scale(-1, 1) translate(-184.046984, -115.500000) "></path>
        <path d="" id="Path-2" stroke="#2A2A2A" stroke-width="1.5" transform="translate(234.500000, 73.500000) scale(-1, 1) translate(-234.500000, -73.500000) "></path>
        <path d="M94.039207,120.190476 C77.7401983,94.3815824 76.7215102,79.7332913 90.9831428,76.245603 C105.244775,72.7579146 109.65909,76.5943718 104.226087,87.7549745 C111.696466,75.8968341 120.864659,75.1992965 131.730665,85.6623615 C142.59667,96.1254266 130.032851,107.634798 94.039207,120.190476 Z" id="Path-3" fill="#FFFFFF"></path>
        <path d="M174.039207,112.190476 C157.740198,86.3815824 156.72151,71.7332913 170.983143,68.245603 C185.244775,64.7579146 189.65909,68.5943718 184.226087,79.7549745 C191.696466,67.8968341 200.864659,67.1992965 211.730665,77.6623615 C222.59667,88.1254266 210.032851,99.6347981 174.039207,112.190476 Z" id="Path-3" fill="#FFC4C4" transform="translate(188.255072, 89.595238) scale(-1, 1) translate(-188.255072, -89.595238) "></path>
        <path d="M169.893053,76.327924 C158.893053,68.327924 134.893053,68.327924 129.893053,83.327924 C124.893053,98.327924 141.893053,108.327924 155.893053,117.327924 C165.226386,123.327924 172.893053,132.661257 178.893053,145.327924 C183.514201,125.867834 185.180867,111.201168 183.893053,101.327924 C180.893053,87.327924 180.893053,84.327924 169.893053,76.327924 Z" id="Path-13" fill="#E7E7E7"></path>
      </g>
      <ellipse id="Oval" fill="#2A2A2A" cx="198" cy="56" rx="1" ry="2"></ellipse>
      <ellipse id="Oval" fill="#2A2A2A" cx="205" cy="56" rx="1" ry="2"></ellipse>
      <path d="M186,66 C198.666667,63.3836478 209,63.3836478 217,66 C225,68.6163522 214.666667,68.6163522 186,66 Z" id="Path" fill="#2A2A2A"></path>
      <path d="M170,41 C156.666667,41 149.333333,44.6666667 148,52" id="Path-14" stroke="#2A2A2A" stroke-width="2"></path>
      <path d="M253,41 C239.666667,41 232.333333,44.6666667 231,52" id="Path-14" stroke="#2A2A2A" stroke-width="2" transform="translate(242.000000, 46.500000) scale(-1, 1) translate(-242.000000, -46.500000) "></path>
      <g id="eye" transform="translate(150.000000, 48.000000)">
        <path d="M16.5,19 C22.5751322,19 28.0751322,15.8333333 33,9.5 C29.0640857,5.31379666 26.0154905,2.70634976 23.8542142,1.6776593 C21.5043754,0.559219767 19.0529706,0 16.5,0 C10.4248678,0 4.92486775,3.16666667 0,9.5 C4.92486775,15.8333333 10.4248678,19 16.5,19 Z" id="Oval" fill="#FFFFFF" transform="translate(16.500000, 9.500000) rotate(-180.000000) translate(-16.500000, -9.500000) "></path>
        <circle id="Oval" stroke="#2A2A2A" stroke-width="1" fill="#42B4D8" cx="16.5" cy="10.5" r="8.5"></circle>
        <circle id="Oval" fill="#2A2A2A" cx="16.5" cy="10.5" r="5.5"></circle>
        <path d="M33,19.5 C29.0640857,15.3137967 26.0154905,12.7063498 23.8542142,11.6776593 C21.5043754,10.5592198 19.0529706,10 16.5,10 C11.3840011,10 6.67586792,12.2457001 2.37560034,16.7371003 C1.83813212,17.2984572 1.04626534,18.2194237 0,19.5 C5.33333333,18.8333333 10.8333333,18.5 16.5,18.5 C22.1666667,18.5 27.6666667,18.8333333 33,19.5 Z" id="Oval" fill="#7EA4B2" transform="translate(16.500000, 14.750000) rotate(-180.000000) translate(-16.500000, -14.750000) "></path>
      </g>
      <g id="eye" transform="translate(218.000000, 48.000000)">
        <path d="M16.5,19 C22.5751322,19 28.0751322,15.8333333 33,9.5 C29.0640857,5.31379666 26.0154905,2.70634976 23.8542142,1.6776593 C21.5043754,0.559219767 19.0529706,0 16.5,0 C10.4248678,0 4.92486775,3.16666667 0,9.5 C4.92486775,15.8333333 10.4248678,19 16.5,19 Z" id="Oval" fill="#FFFFFF" transform="translate(16.500000, 9.500000) rotate(-180.000000) translate(-16.500000, -9.500000) "></path>
        <circle id="Oval" stroke="#2A2A2A" stroke-width="1" fill="#42B4D8" cx="16.5" cy="10.5" r="8.5"></circle>
        <circle id="Oval" fill="#2A2A2A" cx="16.5" cy="10.5" r="5.5"></circle>
        <path d="M33,19.5 C29.0640857,15.3137967 26.0154905,12.7063498 23.8542142,11.6776593 C21.5043754,10.5592198 19.0529706,10 16.5,10 C11.3840011,10 6.67586792,12.2457001 2.37560034,16.7371003 C1.83813212,17.2984572 1.04626534,18.2194237 0,19.5 C5.33333333,18.8333333 10.8333333,18.5 16.5,18.5 C22.1666667,18.5 27.6666667,18.8333333 33,19.5 Z" id="Oval" fill="#7EA4B2" transform="translate(16.500000, 14.750000) rotate(-180.000000) translate(-16.500000, -14.750000) "></path>
      </g>
    </g>
  </g>
</svg>
