<svg width="404px" height="398px" preserveAspectRatio="xMidYMax" viewBox="0 0 404 398" version="1.1"
     xmlns="http://www.w3.org/2000/svg"
     xmlns:xlink="http://www.w3.org/1999/xlink">
  <defs>
    <linearGradient x1="0%" y1="67.1708066%" x2="100%" y2="67.1708066%" id="branch-gradient">
      <stop stop-color="#2C9157" offset="0%"></stop>
      <stop stop-color="#36BB61" offset="26.0634935%"></stop>
      <stop stop-color="#53C778" offset="52.9488801%"></stop>
      <stop stop-color="#36BB61" offset="77.9263006%"></stop>
      <stop stop-color="#009C5A" offset="100%"></stop>
    </linearGradient>
    <radialGradient cx="38.0485372%" cy="36.7092803%" fx="38.0485372%" fy="36.7092803%" r="85.2423726%"
                    gradientTransform="translate(0.380485,0.367093),scale(1.000000,0.915584),rotate(-125.913468),scale(1.000000,0.914252),translate(-0.380485,-0.367093)"
                    id="radialGradient-3">
      <stop stop-color="#F3EBBB" offset="0%"></stop>
      <stop stop-color="#ECC015" offset="99.9254877%"></stop>
      <stop stop-color="#DCD637" offset="100%"></stop>
    </radialGradient>
  </defs>
  <g id="Page-1" stroke="none" stroke-width="1" fill="none" fill-rule="evenodd">
    <g id="Desktop" transform="translate(-310.000000, -318.000000)">
      <g id="flower-happy" transform="translate(310.000000, 318.000000)">
        <g id="flower-branch" transform="translate(190.000000, 47.000000)" fill="url(#branch-gradient)"
           fill-rule="evenodd">
          <rect id="Rectangle" x="0" y="0" width="18" height="351"></rect>
        </g>
        <g id="flower-top" stroke-width="1" fill-rule="evenodd">
          <path
            d="M81.4324324,36 C68.7657658,37.3333333 65.0990991,40 70.4324324,44 C78.4324324,50 53.4324324,32 49.4324324,50 C46.7657658,62 56.4324324,66.3333333 78.4324324,63 L126.432432,73 L134.432432,60 L113.432432,36 L81.4324324,36 Z"
            id="Path-11" fill="#F8D7D7"></path>
          <path
            d="M153.539596,46.9245283 C126.872929,16.2578616 103.539596,3.25786164 83.5395956,7.9245283 C53.5395956,14.9245283 54.5395956,17 63.5395956,26.9622642 C72.5395956,36.9245283 91,41.9245283 105.769798,46.9245283 C115.61633,50.2578616 124.539596,57.9245283 132.539596,69.9245283 L153.539596,46.9245283 Z"
            id="Path-9" fill="#F89898"></path>
          <path
            d="M171.157895,40.0672846 C161.824561,20.7339513 165.157895,11.0672846 181.157895,11.0672846 C205.157895,11.0672846 192.157895,13.0672846 201.157895,3.06728461 C210.157895,-6.93271539 234.157895,8.06728461 219.157895,40.0672846 C209.157895,61.4006179 193.157895,61.4006179 171.157895,40.0672846 Z"
            id="Path-8" fill="#F89898"></path>
          <path
            d="M302.432432,35 C289.765766,36.3333333 286.099099,39 291.432432,43 C299.432432,49 274.432432,31 270.432432,49 C267.765766,61 277.432432,65.3333333 299.432432,62 L347.432432,72 L355.432432,59 L334.432432,35 L302.432432,35 Z"
            id="Path-11" fill="#F8D7D7"
            transform="translate(312.716216, 53.500000) scale(-1, 1) translate(-312.716216, -53.500000) "></path>
          <path
            d="M342.539596,47.9245283 C315.872929,17.2578616 292.539596,4.25786164 272.539596,8.9245283 C242.539596,15.9245283 243.539596,18 252.539596,27.9622642 C261.539596,37.9245283 280,42.9245283 294.769798,47.9245283 C304.61633,51.2578616 313.539596,58.9245283 321.539596,70.9245283 L342.539596,47.9245283 Z"
            id="Path-9" fill="#FAECEC"
            transform="translate(294.769798, 39.462264) scale(-1, 1) translate(-294.769798, -39.462264) "></path>
          <path
            d="M276.842105,33.8716872 C261.409697,22.4813302 248.959458,16.8583379 239.491388,17.0027105 C235.108475,17.0695428 230.558714,17.692535 225.842105,18.8716872 C205.842105,23.8716872 211.175439,33.2050206 241.842105,46.8716872 L276.842105,33.8716872 Z"
            id="Path-10" fill="#F89898"
            transform="translate(245.421053, 31.935844) scale(-1, 1) translate(-245.421053, -31.935844) "></path>
          <path
            d="M181.842105,35.8716872 C166.409697,24.4813302 153.959458,18.8583379 144.491388,19.0027105 C140.108475,19.0695428 135.558714,19.692535 130.842105,20.8716872 C110.842105,25.8716872 116.175439,35.2050206 146.842105,48.8716872 L181.842105,35.8716872 Z"
            id="Path-10" fill="#FAECEC"></path>
          <path
            d="M191,101.369197 L221,77.3691973 C195.666667,63.6530683 183,59.1175844 183,63.7627457 C183,68.407907 185.666667,80.9433908 191,101.369197 Z"
            id="Path" fill="#F0D871"></path>
          <path
            d="M191,101.369197 L221,77.3691973 C195.666667,63.6530683 183,59.1175844 183,63.7627457 C183,68.407907 185.666667,80.9433908 191,101.369197 Z"
            id="Path" fill="#F0D871"></path>
          <g id="bloom" transform="translate(129.000000, 15.000000)" fill="url(#radialGradient-3)">
            <ellipse id="Oval" cx="70.5" cy="77" rx="70.5" ry="77"></ellipse>
          </g>
          <path
            d="M179.025641,98 C162.358974,120.666667 158.692308,142 168.025641,162 C171.358974,168 174.025641,174 176.025641,180 C182.692308,166 189.692308,155.666667 197.025641,149 C204.358974,142.333333 203.358974,125.333333 194.025641,98 L179.025641,98 Z"
            id="Path-4" fill="#F89898"></path>
          <path
            d="M298.890625,71 C270.223958,87 262.890625,95 276.890625,95 C290.118649,95 294.801088,87.8875121 309.890625,86 C318.756312,84.8910136 330.055073,83.4878358 351.890625,92 C391.223958,107.333333 399.223958,100.333333 375.890625,71 L338.890625,65 L298.890625,71 Z"
            id="Path-12" fill="#F8D7D7"
            transform="translate(329.461270, 82.447761) scale(-1, 1) translate(-329.461270, -82.447761) "></path>
          <path
            d="M38.890625,71 C10.2239583,87 2.890625,95 16.890625,95 C30.118649,95 34.8010885,87.8875121 49.890625,86 C58.7563117,84.8910136 70.0550733,83.4878358 91.890625,92 C131.223958,107.333333 139.223958,100.333333 115.890625,71 L78.890625,65 L38.890625,71 Z"
            id="Path-12" fill="#F89898"></path>
          <path
            d="M138.155556,70.4204082 C113.385185,67.6176871 94.1555556,78.8285714 80.4666667,104.053061 C66.7777778,129.277551 58.9555556,145.393197 57,152.4 C85.0296296,140.488435 101.977778,130.678912 107.844444,122.971429 C113.711111,115.263946 126.096296,107.206122 145,98.7979592 L138.155556,70.4204082 Z"
            id="Path-6" fill="#F8D7D7"></path>
          <path
            d="M148,94 C138,96 130.666667,105.333333 126,122 C121.333333,138.666667 119,149.666667 119,155 C125.666667,147 134.666667,143.666667 146,145 C157.333333,146.333333 166.666667,133.666667 174,107 L148,94 Z"
            id="Path-5" fill="#FAECEC"></path>
          <path
            d="M154.802053,83 C134.802053,63.6666667 112.135386,55 86.8020526,57 C48.8020526,60 58.8020526,49 41.8020526,49 C24.8020526,49 7.80205259,70 2.80205259,74 C-2.19794741,78 -4.19794741,88 29.8020526,77 C63.8020526,66 97.8020526,67 109.802053,77 C117.802053,83.6666667 129.802053,89 145.802053,93 L154.802053,83 Z"
            id="Path-7" fill="#FAECEC"></path>
          <path d="" id="Path-2" stroke="#2A2A2A" stroke-width="1.5"></path>
          <path
            d="M339.155556,70.4204082 C314.385185,67.6176871 295.155556,78.8285714 281.466667,104.053061 C267.777778,129.277551 259.955556,145.393197 258,152.4 C286.02963,140.488435 302.977778,130.678912 308.844444,122.971429 C314.711111,115.263946 327.096296,107.206122 346,98.7979592 L339.155556,70.4204082 Z"
            id="Path-6" fill="#F8D7D7"
            transform="translate(302.000000, 111.200000) scale(-1, 1) translate(-302.000000, -111.200000) "></path>
          <path
            d="M403.802053,82 C383.802053,62.6666667 361.135386,54 335.802053,56 C297.802053,59 307.802053,48 290.802053,48 C273.802053,48 256.802053,69 251.802053,73 C246.802053,77 244.802053,87 278.802053,76 C312.802053,65 346.802053,66 358.802053,76 C366.802053,82.6666667 378.802053,88 394.802053,92 L403.802053,82 Z"
            id="Path-7" fill="#F89898"
            transform="translate(326.401026, 70.000000) scale(-1, 1) translate(-326.401026, -70.000000) "></path>
          <path
            d="M251,92 C241,94 233.666667,103.333333 229,120 C224.333333,136.666667 222,147.666667 222,153 C228.666667,145 237.666667,141.666667 249,143 C260.333333,144.333333 269.666667,131.666667 277,105 L251,92 Z"
            id="Path-5" fill="#F89898"
            transform="translate(249.500000, 122.500000) scale(-1, 1) translate(-249.500000, -122.500000) "></path>
          <path d="" id="Path-2" stroke="#2A2A2A" stroke-width="1.5"
                transform="translate(295.500000, 73.500000) scale(-1, 1) translate(-295.500000, -73.500000) "></path>
          <path
            d="M153.039207,124.190476 C136.740198,98.3815824 135.72151,83.7332913 149.983143,80.245603 C164.244775,76.7579146 168.65909,80.5943718 163.226087,91.7549745 C170.696466,79.8968341 179.864659,79.1992965 190.730665,89.6623615 C201.59667,100.125427 189.032851,111.634798 153.039207,124.190476 Z"
            id="Path-3" fill="#F8D7D7"></path>
          <path
            d="M235.039207,112.190476 C218.740198,86.3815824 217.72151,71.7332913 231.983143,68.245603 C246.244775,64.7579146 250.65909,68.5943718 245.226087,79.7549745 C252.696466,67.8968341 261.864659,67.1992965 272.730665,77.6623615 C283.59667,88.1254266 271.032851,99.6347981 235.039207,112.190476 Z"
            id="Path-3" fill="#FAECEC"
            transform="translate(249.255072, 89.595238) scale(-1, 1) translate(-249.255072, -89.595238) "></path>
          <path
            d="M231.893053,88.327924 C220.893053,80.327924 196.893053,80.327924 191.893053,95.327924 C186.893053,110.327924 203.893053,120.327924 217.893053,129.327924 C227.226386,135.327924 234.893053,144.661257 240.893053,157.327924 C245.514201,137.867834 247.180867,123.201168 245.893053,113.327924 C242.893053,99.327924 242.893053,96.327924 231.893053,88.327924 Z"
            id="Path-13" fill="#F8D7D7"></path>
          <g id="flower-mouth">
            <path
              d="M201,74 C206.522847,74 211.522847,70.5 216,63.5 C211.522847,62.5 206.522847,62 201,62 C195.477153,62 190.477153,62.5 186,63.5 C190.477153,70.5 195.477153,74 201,74 Z"
              id="Oval" fill="#000000"></path>
            <path
              d="M200,62 L200,66.9944725 L196,66.9944725 L196,62.1394878 C197.300597,62.0616857 198.63393,62.0151897 200,62 Z M202,62 C203.36607,62.0151897 204.699403,62.0616857 206,62.1394878 L206,66.9944725 L202,66.9944725 L202,62 Z"
              id="Combined-Shape" fill="#FFFFFF"></path>
          </g>
          <g id="flower-eyes">
            <path d="M179,55 C179,46.163444 175.418278,39 171,39 C166.581722,39 163,46.163444 163,55" id="Oval"
                  stroke="#2A2A2A" stroke-width="2"
                  transform="translate(171.000000, 53.000000) rotate(180.000000) translate(-171.000000, -47.000000) "></path>
            <path d="M238,55 C238,46.163444 234.418278,39 230,39 C225.581722 ,39 222,46.163444 222,55" id="Oval"
                  stroke="#2A2A2A" stroke-width="2"
                  transform="translate(230.000000, 53.000000) rotate(180.000000) translate(-230.000000, -47.000000) "></path>
          </g>
        </g>
      </g>
    </g>
  </g>
</svg>
